<svg width="508" height="155" viewBox="0 0 508 155" fill="none" xmlns="http://www.w3.org/2000/svg">
<path d="M0 40.7573C0 33.1383 1.47612 26.2536 4.42837 20.1033C7.47288 13.953 11.9013 9.08778 17.7135 5.50775C23.618 1.83592 30.6757 0 38.8867 0C42.8537 0 46.2673 0.367184 49.1273 1.10155C51.9873 1.83592 55.4008 2.84567 59.3679 4.13081L58.8143 25.3356H49.8192L46.7747 11.2909C46.2212 8.7206 42.7154 7.43546 36.2573 7.43546C29.7993 7.43546 24.679 10.0516 20.8964 15.284C17.2061 20.4246 15.3609 27.7682 15.3609 37.315C15.3609 48.1469 17.4367 56.4085 21.5883 62.0998C25.8322 67.6994 31.3215 70.4991 38.0563 70.4991C41.9312 70.4991 45.5754 69.9025 48.9889 68.7091C52.4947 67.5158 55.4931 66.0929 57.984 64.4406L60.6134 69.9484C58.1224 72.5186 54.4321 74.8594 49.5424 76.9707C44.745 78.9902 39.8554 80 34.8734 80C27.3083 80 20.8964 78.3018 15.6377 74.9053C10.4713 71.5089 6.5503 66.8732 3.87483 60.9983C1.29161 55.0316 0 48.2846 0 40.7573Z" fill="#1E1E1E"/>
<path d="M72.6108 57.8313C72.6108 49.2025 76.947 42.8686 85.6192 38.8296C94.2914 34.6988 105.27 32.4957 118.555 32.2203V28.3649C118.555 24.0505 118.094 20.654 117.171 18.1756C116.249 15.6971 114.634 13.9071 112.328 12.8055C110.114 11.6122 106.931 11.0155 102.779 11.0155C98.074 11.0155 93.8301 11.704 90.0476 13.0809C86.3573 14.366 82.6669 15.9725 78.9766 17.9002L75.517 10.7401C76.7163 9.73035 78.9305 8.39931 82.1595 6.74699C85.3886 5.09467 89.125 3.62593 93.3689 2.34079C97.6127 1.05565 101.857 0.413084 106.1 0.413084C112.651 0.413084 117.817 1.33104 121.6 3.16695C125.475 4.91108 128.242 7.75675 129.903 11.704C131.564 15.6512 132.394 20.9294 132.394 27.5387V71.7384H140.559V77.7969C138.714 78.2559 136.361 78.7149 133.501 79.1738C130.733 79.6328 128.288 79.8623 126.166 79.8623C123.583 79.8623 121.83 79.4492 120.908 78.6231C119.985 77.8887 119.524 76.1905 119.524 73.5284V68.9845C116.756 71.7384 113.343 74.2628 109.283 76.5577C105.316 78.8526 100.796 80 95.7214 80C89.0789 80 83.5434 78.1182 79.115 74.3546C74.7789 70.4991 72.6108 64.9914 72.6108 57.8313ZM101.672 70.6368C104.071 70.6368 106.838 69.9025 109.975 68.4337C113.112 66.965 115.972 65.2209 118.555 63.2014V39.5181C108.499 39.5181 100.888 41.0786 95.7214 44.1997C90.6472 47.2289 88.1102 51.222 88.1102 56.179C88.1102 61.136 89.3095 64.8078 91.7082 67.1945C94.1992 69.4894 97.5205 70.6368 101.672 70.6368Z" fill="#1E1E1E"/>
<path d="M163.053 67.4699C163.976 68.8468 165.913 70.0861 168.865 71.1876C171.91 72.2892 175.093 72.8399 178.414 72.8399C183.673 72.8399 187.547 71.8302 190.038 69.8107C192.529 67.7912 193.775 64.9914 193.775 61.4114C193.775 58.9329 192.991 56.7757 191.422 54.9398C189.854 53.1038 187.64 51.4974 184.78 50.1205C182.012 48.6518 177.999 46.9076 172.74 44.8881C165.636 42.226 160.424 39.0591 157.102 35.3873C153.873 31.6236 152.259 26.7126 152.259 20.654C152.259 16.615 153.458 13.0809 155.857 10.0516C158.348 7.02238 161.715 4.68159 165.959 3.02926C170.295 1.28514 175.093 0.413084 180.351 0.413084C184.595 0.413084 188.286 0.73437 191.422 1.37694C194.651 2.01951 197.235 2.66208 199.172 3.30465C201.109 3.94722 202.401 4.3603 203.047 4.5439V21.6179H194.605L191.837 11.4286C191.284 10.327 189.808 9.40907 187.409 8.6747C185.01 7.84854 182.335 7.43546 179.383 7.43546C175.231 7.43546 171.864 8.35342 169.28 10.1893C166.789 12.0252 165.544 14.5037 165.544 17.6248C165.544 20.3787 166.19 22.6736 167.481 24.5095C168.865 26.2536 170.572 27.6764 172.602 28.778C174.631 29.8795 177.399 31.1647 180.905 32.6334L183.673 33.7349C188.839 35.7544 193.037 37.6822 196.266 39.5181C199.495 41.354 202.17 43.7866 204.292 46.8158C206.506 49.7533 207.614 53.3792 207.614 57.6936C207.614 64.4865 204.938 69.9025 199.587 73.9415C194.328 77.9805 187.086 80 177.86 80C173.34 80 168.589 79.4033 163.607 78.21C158.717 76.9248 154.704 75.6397 151.567 74.3546V56.7298H160.562L163.053 67.4699Z" fill="#1E1E1E"/>
<path d="M220.052 57.8313C220.052 49.2025 224.388 42.8686 233.06 38.8296C241.733 34.6988 252.711 32.4957 265.997 32.2203V28.3649C265.997 24.0505 265.535 20.654 264.613 18.1756C263.69 15.6971 262.076 13.9071 259.769 12.8055C257.555 11.6122 254.372 11.0155 250.22 11.0155C245.515 11.0155 241.271 11.704 237.489 13.0809C233.799 14.366 230.108 15.9725 226.418 17.9002L222.958 10.7401C224.158 9.73035 226.372 8.39931 229.601 6.74699C232.83 5.09467 236.566 3.62593 240.81 2.34079C245.054 1.05565 249.298 0.413084 253.542 0.413084C260.092 0.413084 265.258 1.33104 269.041 3.16695C272.916 4.91108 275.684 7.75675 277.344 11.704C279.005 15.6512 279.835 20.9294 279.835 27.5387V71.7384H288V77.7969C286.155 78.2559 283.802 78.7149 280.942 79.1738C278.175 79.6328 275.73 79.8623 273.608 79.8623C271.025 79.8623 269.272 79.4492 268.349 78.6231C267.427 77.8887 266.965 76.1905 266.965 73.5284V68.9845C264.197 71.7384 260.784 74.2628 256.725 76.5577C252.758 78.8526 248.237 80 243.163 80C236.52 80 230.985 78.1182 226.556 74.3546C222.22 70.4991 220.052 64.9914 220.052 57.8313ZM249.113 70.6368C251.512 70.6368 254.28 69.9025 257.417 68.4337C260.553 66.965 263.413 65.2209 265.997 63.2014V39.5181C255.94 39.5181 248.329 41.0786 243.163 44.1997C238.089 47.2289 235.551 51.222 235.551 56.179C235.551 61.136 236.751 64.8078 239.149 67.1945C241.64 69.4894 244.962 70.6368 249.113 70.6368Z" fill="#1E1E1E"/>
<path d="M439.115 132.719C439.115 124.046 443.451 117.68 452.124 113.621C460.796 109.469 471.775 107.255 485.061 106.978V103.103C485.061 98.7665 484.6 95.3528 483.677 92.8617C482.755 90.3706 481.14 88.5715 478.834 87.4644C476.619 86.265 473.436 85.6653 469.284 85.6653C464.579 85.6653 460.335 86.3573 456.552 87.7412C452.862 89.0329 449.171 90.6474 445.481 92.5849L442.021 85.3885C443.22 84.3736 445.435 83.0358 448.664 81.3751C451.893 79.7144 455.63 78.2382 459.874 76.9465C464.118 75.6549 468.362 75.009 472.606 75.009C479.156 75.009 484.323 75.9317 488.106 77.7769C491.981 79.5299 494.749 82.39 496.409 86.3573C498.07 90.3245 498.901 95.6296 498.901 102.272V146.697H507.066V152.786C505.22 153.247 502.868 153.708 500.008 154.17C497.24 154.631 494.795 154.862 492.673 154.862C490.089 154.862 488.336 154.447 487.414 153.616C486.491 152.878 486.03 151.171 486.03 148.496V143.929C483.262 146.697 479.848 149.234 475.789 151.54C471.822 153.847 467.301 155 462.226 155C455.584 155 450.048 153.109 445.619 149.326C441.283 145.451 439.115 139.915 439.115 132.719ZM468.177 145.589C470.576 145.589 473.344 144.851 476.481 143.375C479.618 141.899 482.478 140.146 485.061 138.116V114.313C475.005 114.313 467.393 115.881 462.226 119.018C457.152 122.063 454.615 126.076 454.615 131.058C454.615 136.04 455.814 139.731 458.213 142.13C460.704 144.436 464.025 145.589 468.177 145.589Z" fill="#1E1E1E"/>
<path d="M354.917 114.866C354.917 106.563 356.624 99.3661 360.038 93.2768C363.451 87.1875 367.926 82.5744 373.462 79.4375C379.09 76.2083 385.087 74.5938 391.453 74.5938C403.078 74.5938 411.796 78.2842 417.609 85.6652C423.514 93.0461 426.466 102.734 426.466 114.728C426.466 123.124 424.759 130.366 421.346 136.455C417.932 142.545 413.411 147.158 407.783 150.295C402.247 153.432 396.296 155 389.93 155C378.305 155 369.541 151.31 363.636 143.929C357.823 136.548 354.917 126.86 354.917 114.866ZM390.761 147.112C397.127 147.112 402.017 144.482 405.43 139.223C408.844 133.964 410.551 126.168 410.551 115.835C410.551 105.594 408.983 97.4747 405.846 91.4777C402.709 85.4807 397.68 82.4821 390.761 82.4821C384.395 82.4821 379.459 85.1116 375.953 90.3705C372.539 95.6295 370.832 103.426 370.832 113.759C370.832 124 372.447 132.119 375.676 138.116C378.905 144.113 383.933 147.112 390.761 147.112Z" fill="#1E1E1E"/>
<path d="M322.225 154.862C316.966 154.862 313.045 153.662 310.461 151.264C307.878 148.865 306.586 144.759 306.586 138.947V85.8037H296.622V79.576C297.083 79.4838 298.375 79.1609 300.497 78.6073C302.619 78.0537 304.049 77.5463 304.787 77.085C306.263 76.2546 307.417 74.5939 308.247 72.1028C308.985 70.3499 309.862 67.5359 310.877 63.6609C311.891 59.7859 312.491 57.4793 312.676 56.7412H320.841L321.118 76.6698H344.229V85.8037H321.118V128.29C321.118 133.549 321.256 137.24 321.533 139.362C321.902 141.484 322.594 142.868 323.609 143.514C324.716 144.159 326.561 144.482 329.144 144.482C331.635 144.482 334.357 144.159 337.31 143.514C340.354 142.868 342.707 142.176 344.368 141.438L346.444 147.665C344.229 149.326 340.631 150.941 335.649 152.509C330.759 154.078 326.284 154.862 322.225 154.862Z" fill="#1E1E1E"/>
<path d="M241.558 142.406C242.481 143.79 244.418 145.036 247.37 146.143C250.415 147.25 253.598 147.804 256.92 147.804C262.178 147.804 266.053 146.789 268.545 144.759C271.036 142.729 272.281 139.915 272.281 136.317C272.281 133.826 271.497 131.658 269.928 129.813C268.36 127.967 266.146 126.353 263.286 124.969C260.518 123.493 256.504 121.74 251.245 119.71C244.141 117.034 238.928 113.851 235.607 110.161C232.378 106.378 230.763 101.442 230.763 95.3528C230.763 91.2933 231.963 87.7412 234.361 84.6965C236.853 81.6519 240.22 79.2992 244.464 77.6385C248.8 75.8855 253.598 75.009 258.857 75.009C263.101 75.009 266.792 75.332 269.928 75.9778C273.158 76.6236 275.741 77.2695 277.678 77.9153C279.616 78.5611 280.908 78.9763 281.553 79.1608V96.3215H273.111L270.344 86.0805C269.79 84.9733 268.314 84.0507 265.915 83.3126C263.516 82.4823 260.841 82.0671 257.888 82.0671C253.736 82.0671 250.369 82.9897 247.786 84.8349C245.295 86.6802 244.049 89.1712 244.049 92.3081C244.049 95.076 244.695 97.3826 245.986 99.2278C247.37 100.981 249.077 102.411 251.107 103.518C253.137 104.625 255.905 105.917 259.411 107.393L262.178 108.5C267.345 110.53 271.543 112.467 274.772 114.313C278.001 116.158 280.677 118.603 282.799 121.647C285.013 124.6 286.12 128.244 286.12 132.58C286.12 139.408 283.445 144.851 278.094 148.911C272.835 152.97 265.592 155 256.366 155C251.845 155 247.094 154.4 242.111 153.201C237.222 151.909 233.208 150.618 230.071 149.326V131.612H239.067L241.558 142.406Z" fill="#1E1E1E"/>
<path d="M144.489 114.866C144.489 106.563 146.196 99.3661 149.61 93.2768C153.023 87.1875 157.498 82.5744 163.034 79.4375C168.662 76.2083 174.659 74.5938 181.025 74.5938C192.65 74.5938 201.369 78.2842 207.181 85.6652C213.086 93.0461 216.038 102.734 216.038 114.728C216.038 123.124 214.332 130.366 210.918 136.455C207.504 142.545 202.983 147.158 197.355 150.295C191.82 153.432 185.869 155 179.503 155C167.878 155 159.113 151.31 153.208 143.929C147.396 136.548 144.489 126.86 144.489 114.866ZM180.333 147.112C186.699 147.112 191.589 144.482 195.003 139.223C198.416 133.964 200.123 126.168 200.123 115.835C200.123 105.594 198.555 97.4747 195.418 91.4777C192.281 85.4807 187.253 82.4821 180.333 82.4821C173.967 82.4821 169.031 85.1116 165.525 90.3705C162.111 95.6295 160.404 103.426 160.404 113.759C160.404 124 162.019 132.119 165.248 138.116C168.477 144.113 173.506 147.112 180.333 147.112Z" fill="#1E1E1E"/>
<path d="M87.4876 142.406C88.4102 143.79 90.3477 145.036 93.3001 146.143C96.3447 147.25 99.5278 147.804 102.849 147.804C108.108 147.804 111.983 146.789 114.474 144.759C116.965 142.729 118.211 139.915 118.211 136.317C118.211 133.826 117.427 131.658 115.858 129.813C114.29 127.967 112.075 126.353 109.215 124.969C106.447 123.493 102.434 121.74 97.1751 119.71C90.0709 117.034 84.8581 113.851 81.5367 110.161C78.3075 106.378 76.6929 101.442 76.6929 95.3528C76.6929 91.2933 77.8923 87.7412 80.2912 84.6965C82.7822 81.6519 86.1498 79.2992 90.3938 77.6385C94.7302 75.8855 99.5278 75.009 104.787 75.009C109.031 75.009 112.721 75.332 115.858 75.9778C119.087 76.6236 121.671 77.2695 123.608 77.9153C125.546 78.5611 126.837 78.9763 127.483 79.1608V96.3215H119.041L116.273 86.0805C115.72 84.9733 114.244 84.0507 111.845 83.3126C109.446 82.4823 106.77 82.0671 103.818 82.0671C99.6662 82.0671 96.2986 82.9897 93.7153 84.8349C91.2242 86.6802 89.9787 89.1712 89.9787 92.3081C89.9787 95.076 90.6245 97.3826 91.9162 99.2278C93.3001 100.981 95.0069 102.411 97.0367 103.518C99.0665 104.625 101.834 105.917 105.34 107.393L108.108 108.5C113.275 110.53 117.473 112.467 120.702 114.313C123.931 116.158 126.607 118.603 128.729 121.647C130.943 124.6 132.05 128.244 132.05 132.58C132.05 139.408 129.375 144.851 124.023 148.911C118.764 152.97 111.522 155 102.296 155C97.7748 155 93.0233 154.4 88.0412 153.201C83.1513 151.909 79.1379 150.618 76.001 149.326V131.612H84.9965L87.4876 142.406Z" fill="#1E1E1E"/>
<path d="M109 74.9167L123.875 65L126 75.625L119.625 82L109 74.9167Z" fill="#1E1E1E"/>
<path d="M256 73.3333L270.875 64L273 74L266.625 80L256 73.3333Z" fill="#1E1E1E"/>
</svg>
